<svg xmlns="http://www.w3.org/2000/svg" viewBox="0 0 523.36 523.37"><defs><style>.cls-1{font-size:99px;}.cls-1,.cls-2{font-family:MyriadPro-Regular, Myriad Pro;}.cls-2{font-size:100px;}</style></defs><g id="Calque_2" data-name="Calque 2"><g id="Calque_1-2" data-name="Calque 1"><text class="cls-1" transform="translate(245.02 81.46) rotate(5.15)">D</text><text class="cls-1" transform="matrix(0.93, 0.38, -0.38, 0.93, 306.05, 87.54)">E</text><text class="cls-1" transform="matrix(0.8, 0.59, -0.59, 0.8, 347.78, 103.96)">S</text><text class="cls-1" transform="matrix(0.63, 0.77, -0.77, 0.63, 384.19, 130.3)">E</text><text class="cls-1" transform="matrix(0.41, 0.91, -0.91, 0.41, 413.15, 164.43)">R</text><text class="cls-1" transform="translate(433.82 209.96) rotate(81.21)">T</text><text class="cls-1" transform="translate(439.88 255.69) rotate(91.42)"> </text><text class="cls-1" transform="translate(440.92 274.05) rotate(101.68)">E</text><text class="cls-1" transform="translate(433.3 317.97) rotate(117.86)">A</text><text class="cls-1" transform="translate(408.84 366.8) rotate(135.72)">G</text><text class="cls-1" transform="matrix(-0.88, 0.47, -0.47, -0.88, 365.84, 407.93)">L</text><text class="cls-1" transform="translate(328.23 428.63) rotate(166.1)">E</text><text class="cls-1" transform="matrix(-1, 0.06, -0.06, -1, 283.62, 438.66)"> </text><text class="cls-1" transform="translate(265.86 442.19) rotate(-171.74)">A</text><text class="cls-1" transform="translate(210.27 433.76) rotate(-155.86)">L</text><text class="cls-1" transform="matrix(-0.79, -0.61, 0.61, -0.79, 170.85, 416.57)">L</text><text class="cls-1" transform="matrix(-0.67, -0.74, 0.74, -0.67, 136.76, 388.93)"> </text><text class="cls-1" transform="matrix(-0.55, -0.84, 0.84, -0.55, 125.83, 379.31)">T</text><text class="cls-1" transform="matrix(-0.28, -0.96, 0.96, -0.28, 99.8, 342.59)">H</text><text class="cls-1" transform="translate(83.28 285.03) rotate(-89.07)">E</text><text class="cls-1" transform="matrix(0.18, -0.98, 0.98, 0.18, 84.78, 239.09)"> </text><text class="cls-1" transform="matrix(0.42, -0.91, 0.91, 0.42, 82.6, 224.35)">W</text><text class="cls-1" transform="matrix(0.7, -0.71, 0.71, 0.7, 113.67, 158.27)">A</text><text class="cls-1" transform="translate(147.3 122.69) rotate(-30.95)">Y</text><text class="cls-1" transform="translate(191.15 97.87) rotate(-19.92)"> </text><text class="cls-2" transform="translate(208.69 91.01) rotate(-12.27)">-</text></g></g></svg>